<svg width="149" height="149" viewBox="0 0 149 149" fill="none" xmlns="http://www.w3.org/2000/svg">
<circle opacity="0.9" cx="74" cy="74" r="50" fill="#51E368"/>
<path d="M130.533 76.4935C130.147 85.5452 127.59 94.3713 123.077 102.227C118.564 110.083 112.229 116.739 104.604 121.633C96.9797 126.527 88.2901 129.515 79.2684 130.347C70.2467 131.178 61.1573 129.827 52.767 126.409L55.5381 119.607C62.8378 122.581 70.7456 123.756 78.5946 123.033C86.4436 122.31 94.0036 119.71 100.637 115.452C107.27 111.194 112.783 105.404 116.709 98.5691C120.635 91.7343 122.86 84.0555 123.196 76.1804L130.533 76.4935Z" fill="#51E368"/>
<path d="M43.9866 121.901C36.3192 117.074 29.9249 110.475 25.343 102.659C20.761 94.843 18.1258 86.0399 17.6597 76.992C17.1935 67.944 18.91 58.9167 22.6645 50.6712C26.4189 42.4258 32.1011 35.2042 39.2319 29.6155L43.7625 35.396C37.5586 40.2583 32.615 46.5412 29.3486 53.7148C26.0822 60.8884 24.5888 68.7423 24.9944 76.6141C25.3999 84.4859 27.6926 92.1447 31.6789 98.9446C35.6652 105.745 41.2284 111.486 47.8991 115.685L43.9866 121.901Z" fill="#51E368"/>
<path d="M47.5553 24.2006C55.5544 19.9465 64.4592 17.6785 73.5186 17.5877C82.5781 17.4969 91.5266 19.586 99.6093 23.679C107.692 27.7719 114.672 33.7485 119.96 41.1048C125.249 48.4611 128.691 56.9812 129.996 65.9467L122.728 67.0045C121.592 59.2045 118.598 51.7919 113.997 45.3918C109.396 38.9918 103.323 33.7921 96.2914 30.2312C89.2593 26.6703 81.4741 24.8527 73.5922 24.9317C65.7104 25.0107 57.9631 26.984 51.0039 30.6851L47.5553 24.2006Z" fill="#51E368"/>
<g filter="url(#filter0_d_14_10)">
<path d="M100.017 46.9835C93.8818 40.8488 85.8097 37.031 77.1756 36.1806C68.5416 35.3302 59.8798 37.4999 52.6661 42.3199C45.4524 47.1399 40.1332 54.3121 37.6147 62.6143C35.0963 70.9166 35.5344 79.8352 38.8545 87.8506C42.1746 95.866 48.1712 102.482 55.8226 106.572C63.474 110.662 72.3068 111.972 80.8159 110.279C89.325 108.587 96.984 103.996 102.488 97.2897C107.992 90.5832 111 82.1758 111 73.5H105.031C105.031 80.7949 102.502 87.8642 97.874 93.5032C93.2462 99.1423 86.8062 103.002 79.6515 104.425C72.4967 105.849 65.0698 104.747 58.6362 101.308C52.2027 97.8693 47.1605 92.3061 44.3689 85.5665C41.5772 78.8269 41.2088 71.3278 43.3264 64.3469C45.444 57.3661 49.9166 51.3355 55.9821 47.2827C62.0477 43.2298 69.3308 41.4055 76.5906 42.1205C83.8504 42.8356 90.6377 46.0457 95.796 51.204L100.017 46.9835Z" fill="#453B3B"/>
<line x1="107.394" y1="77.5" x2="73.5" y2="77.5" stroke="#453B3B" stroke-width="8"/>
</g>
<defs>
<filter id="filter0_d_14_10" x="32" y="35.9999" width="83" height="83.0001" filterUnits="userSpaceOnUse" color-interpolation-filters="sRGB">
<feFlood flood-opacity="0" result="BackgroundImageFix"/>
<feColorMatrix in="SourceAlpha" type="matrix" values="0 0 0 0 0 0 0 0 0 0 0 0 0 0 0 0 0 0 127 0" result="hardAlpha"/>
<feOffset dy="4"/>
<feGaussianBlur stdDeviation="2"/>
<feComposite in2="hardAlpha" operator="out"/>
<feColorMatrix type="matrix" values="0 0 0 0 0 0 0 0 0 0 0 0 0 0 0 0 0 0 0.25 0"/>
<feBlend mode="normal" in2="BackgroundImageFix" result="effect1_dropShadow_14_10"/>
<feBlend mode="normal" in="SourceGraphic" in2="effect1_dropShadow_14_10" result="shape"/>
</filter>
</defs>
</svg>
